<svg xmlns="http://www.w3.org/2000/svg" viewBox="0 0 770.16 109.21"><defs><style>.cls-1{fill:none;}.cls-2{font-size:50.4px;font-family:LeagueSpartan-Bold, League Spartan;font-weight:700;}.cls-3{letter-spacing:0em;}.cls-4{letter-spacing:-0.01em;}.cls-5{letter-spacing:0em;}.cls-6{letter-spacing:0em;}.cls-7{letter-spacing:0em;}.cls-8{letter-spacing:-0.01em;}.cls-9{font-size:36px;font-family:ComingSoon-Regular, Coming Soon;}.cls-10{letter-spacing:0.02em;}.cls-11{letter-spacing:-0.02em;}</style></defs><title>Center for Better Learning</title><g id="Layer_2" data-name="Layer 2"><g id="Layer_1-2" data-name="Layer 1"><path d="M729.55,83.06c-.56-.26-1.14-.5-1.67-.8-3.33-1.91-5.89-1.56-8.57,1.09-1.45,1.43-3,2.77-4.67,4.3,2.3,2.12,5.54,3.63,7.41,6.47l-.61.77a24.5,24.5,0,0,1-2.19-1.38c-3.24-2.55-6.08-5.7-10.52-6.28a3.64,3.64,0,0,1-2.18-1.13c-1.89-2.36-4.18-1.86-6.7-1.41-6.24,1.1-11-1.74-12-6.87-1.3-7.13,1.77-12.21,8.16-13.74a6.2,6.2,0,0,0,2.74-1.75c2.23-2.3,4.61-3.69,8-2.57a3.91,3.91,0,0,0,2.71-.36c4-2.1,6.35-1.79,9.67,1.28a4.1,4.1,0,0,0,2.39.85c4.76.26,8.23,2.36,10.23,6.73.14.3.2.73.43.88,4.5,2.86,3.4,7.56,3.6,11.65.26,5.15-2.84,7.63-7.94,6.77a46.53,46.53,0,0,1-5-1.42l.23-1.16a19.84,19.84,0,0,1,2.47.34c2.42.66,5,1.67,7.07-.36s1.92-4.83,1.29-7.48c-.89-3.82-3.28-5-7.31-4.31a39.06,39.06,0,0,1-7.33.5c-.78,0-1.54-.84-2.31-1.29l.3-.81,3.11.63,2.78-4.46,1,.53-1.61,4.08,6-1.28c-1.32-2,.15-2,1.46-2.06-1.45-3.9-4.48-5.73-9.26-5.64-1.16,0-2.32.28-3.48.31a9.11,9.11,0,0,1-1.9-.37L716.82,62l.54-.43c-2.29-2.33-3.68-2.4-7.45-.36.13.68.28,1.41.37,1.86-2.48-.6-5.17-2.13-7.2-1.5s-3.66,3.37-5.51,5.24c-1.7-1.2-3.79-.83-6,1.4-2.65,2.67-3.11,9.13-.83,12.08,2.66,3.45,6.36,3.06,10,2.63a13.16,13.16,0,0,0,2.07-.59c-1.19-3.76.33-6.57,3-9a4.46,4.46,0,0,0,.9-2.15,18.42,18.42,0,0,0,.33-2.49l.83-.07.73,3.56a34.85,34.85,0,0,1,3.52,0,5,5,0,0,1,1.55.82,6.92,6.92,0,0,1-1.46.93,4.62,4.62,0,0,1-1.49,0c-3.68,0-6.47,2.32-6.58,5.47-.11,2.92,3.16,6.26,6.43,6.58,2.94.28,5-1.12,6.91-3.22,3.24-3.66,7.32-4.46,10.9-2.17a10.46,10.46,0,0,1,1.7,1.75Z"/><path d="M691.85,70.78a11,11,0,0,0,.73,2.43c.33.57.91,1.27,1.48,1.36s1.13-.58,1.57-1c1.26-1.37,2.49-2.76,3.64-4.22.72-.91,1.27-2,2-3,.8,2,1.52,3.78,2.37,5.87-.59-.13-1.55-.08-2.1-.53-1.39-1.13-2.56-.53-3.06.6a27.59,27.59,0,0,0-1.51,5.55,11.59,11.59,0,0,0,0,2.43l-1,.48a3.94,3.94,0,0,1-.4-1.15c0-1.93-.77-3-2.84-3.6C690.85,75.4,690.5,73.06,691.85,70.78Z"/><path d="M705.49,62.26c.23.85.45,1.7.51,1.94,2.43.7,4.42,1.33,6.44,1.81.55.13,1.21-.26,1.82-.33,1.42-.17,2.85-.29,4.27-.42.06.36.12.73.17,1.09l-4.24,1.1a7.17,7.17,0,0,0-.12.83c0,.74,0,1.49,0,2.23a8,8,0,0,1-1.62-1.42c-2-3-4.4-3.38-7.27-1.13a8,8,0,0,1-1.47.68c.17-2.4.31-4.48.45-6.55Z"/><path d="M716.14,74l-1.9,3.27,6.5,1.18c-1.09,1.93-2.75,1.87-4.44,1.3-4.23-1.42-4.2-1.45-6.74,2.12-.25.35-.87.44-1.32.64-.07-.44-.37-1.08-.18-1.3,2.35-2.7,4.77-5.33,7.18-8Z"/><path d="M724.58,93.52c-3.44-1-5.5-4.85-4.88-8.69C721.49,88,723,90.77,724.58,93.52Z"/><path d="M30.52,43c-13.88-9.25-13.15-24.84-5.3-33.36a21.7,21.7,0,0,1,30.86-.9c7.63,7.17,10.92,23.8-4.19,34.2,1.78.68,3.5,1.23,5.13,2C72.49,52.08,81.09,64,82,81.14c.27,5.29.07,10.61.09,15.92,0,1.39,0,2.89-1.91,2.86S78.31,98.37,78.26,97c-.23-7.2.2-14.5-.88-21.57C74.61,57.13,56.06,43.57,37.61,45.71,17.69,48,4,63.29,4,83.29,4,87.85,4,92.41,4,97c0,1.43-.14,2.87-1.89,2.94C.18,100,0,98.47,0,96.94c.14-6.46-.32-13,.52-19.36C2.77,60.4,12.73,49.24,29,43.46,29.35,43.32,29.74,43.23,30.52,43ZM58.58,24.13A17.35,17.35,0,0,0,41.31,6.61a17.48,17.48,0,1,0-.34,35A17.35,17.35,0,0,0,58.58,24.13Z"/><path class="cls-1" d="M58.58,24.13A17.35,17.35,0,0,1,41,41.57a17.48,17.48,0,1,1,.34-35A17.35,17.35,0,0,1,58.58,24.13Z"/><path d="M169.09,77.25C162.42,85.9,154.75,92.13,143.65,92s-18.53-6.35-24.94-14.73c-1,1.36-1.93,2.56-2.88,3.7-.71.86-1,2.73-2.65,1.57-.37-.27.09-2.25.67-3.11A35.1,35.1,0,0,1,131.69,65.7a36.58,36.58,0,0,1,42.19,13.6c.33.48.83.94.91,1.46a6.7,6.7,0,0,1-.24,2c-.63-.21-1.49-.24-1.86-.68C171.46,80.65,170.41,79.07,169.09,77.25Zm-48.35-1.66c6.26,8.42,13.77,14.6,24.8,13.82C155.1,88.73,161.73,83,167,75.49,155.16,63.28,132,63.33,120.74,75.59Z"/><path class="cls-1" d="M120.74,75.59C132,63.33,155.16,63.28,167,75.49,161.73,83,155.1,88.73,145.54,89.41,134.51,90.19,127,84,120.74,75.59Zm14,2.36A9.11,9.11,0,0,0,153,78a9.11,9.11,0,1,0-18.21,0Z"/><path d="M134.79,78A9.11,9.11,0,1,1,144,87,9.13,9.13,0,0,1,134.79,78Zm2.62-.06a6.53,6.53,0,0,0,6.39,6.6,6.58,6.58,0,1,0,0-13.15A6.49,6.49,0,0,0,137.41,77.89Z"/><path class="cls-1" d="M137.41,77.89a6.49,6.49,0,0,1,6.42-6.55,6.58,6.58,0,1,1,0,13.15A6.53,6.53,0,0,1,137.41,77.89Z"/><text class="cls-2" transform="translate(82.1 45.99)">C<tspan class="cls-3" x="37.95" y="0">e</tspan><tspan class="cls-4" x="68.24" y="0">n</tspan><tspan class="cls-5" x="101.25" y="0">t</tspan><tspan class="cls-6" x="121.16" y="0">e</tspan><tspan x="151.45" y="0">r f</tspan><tspan class="cls-3" x="209.21" y="0">o</tspan><tspan x="242.42" y="0">r B</tspan><tspan class="cls-7" x="314.84" y="0">e</tspan><tspan class="cls-8" x="344.98" y="0">t</tspan><tspan x="364.59" y="0">t</tspan><tspan class="cls-3" x="384.5" y="0">e</tspan><tspan x="414.79" y="0">r L</tspan><tspan class="cls-7" x="482.12" y="0">e</tspan><tspan x="512.26" y="0">arning</tspan></text><text class="cls-9" transform="translate(190.01 91.7)">Better Vision. B<tspan class="cls-10" x="250.24" y="0">r</tspan><tspan x="266.52" y="0">ighter </tspan><tspan class="cls-11" x="374.87" y="0">F</tspan><tspan x="391.11" y="0">utu</tspan><tspan class="cls-11" x="446.73" y="0">r</tspan><tspan x="461.6" y="0">e.</tspan></text></g></g></svg>