<svg xmlns="http://www.w3.org/2000/svg" viewBox="0 0 688.05 109.21"><defs><style>.cls-1{fill:none;}.cls-2{font-size:50.4px;font-family:LeagueSpartan-Bold, League Spartan;font-weight:700;}.cls-3{letter-spacing:0em;}.cls-4{letter-spacing:-0.01em;}.cls-5{letter-spacing:0em;}.cls-6{letter-spacing:0em;}.cls-7{letter-spacing:0em;}.cls-8{letter-spacing:-0.01em;}.cls-9{font-size:36px;font-family:ComingSoon-Regular, Coming Soon;}.cls-10{letter-spacing:0.02em;}.cls-11{letter-spacing:-0.02em;}</style></defs><title>Asset 10</title><g id="Layer_2" data-name="Layer 2"><g id="Layer_1-2" data-name="Layer 1"><path d="M647.44,83.06c-.56-.26-1.13-.5-1.67-.8-3.33-1.91-5.88-1.56-8.56,1.09-1.45,1.43-3,2.77-4.68,4.3,2.3,2.12,5.54,3.63,7.42,6.47l-.61.77a24.67,24.67,0,0,1-2.2-1.38c-3.23-2.55-6.07-5.7-10.51-6.28a3.59,3.59,0,0,1-2.18-1.13c-1.9-2.36-4.19-1.86-6.7-1.41-6.25,1.1-11-1.74-12-6.87-1.3-7.13,1.77-12.21,8.16-13.74a6.15,6.15,0,0,0,2.74-1.75c2.23-2.3,4.62-3.69,8-2.57a3.89,3.89,0,0,0,2.7-.36c4-2.1,6.35-1.79,9.67,1.28a4.16,4.16,0,0,0,2.4.85c4.75.26,8.22,2.36,10.22,6.73.14.3.2.73.44.88,4.49,2.86,3.39,7.56,3.6,11.65.25,5.15-2.85,7.63-7.94,6.77a47.36,47.36,0,0,1-5-1.42L641,85a20.27,20.27,0,0,1,2.48.34c2.41.66,5,1.67,7.07-.36s1.91-4.83,1.29-7.48c-.9-3.82-3.28-5-7.32-4.31a39,39,0,0,1-7.33.5c-.77,0-1.54-.84-2.3-1.29l.3-.81,3.11.63,2.77-4.46,1,.53c-.47,1.19-.94,2.38-1.62,4.08l6-1.28c-1.32-2,.15-2,1.46-2.06-1.46-3.9-4.48-5.73-9.27-5.64-1.16,0-2.31.28-3.47.31a9.33,9.33,0,0,1-1.91-.37L634.72,62l.54-.43c-2.29-2.33-3.68-2.4-7.46-.36.14.68.28,1.41.37,1.86-2.48-.6-5.17-2.13-7.19-1.5s-3.67,3.37-5.52,5.24c-1.69-1.2-3.79-.83-6,1.4-2.66,2.67-3.11,9.13-.84,12.08,2.66,3.45,6.37,3.06,10,2.63a12.59,12.59,0,0,0,2.07-.59c-1.18-3.76.33-6.57,3-9a4.38,4.38,0,0,0,.91-2.15,20.16,20.16,0,0,0,.32-2.49l.84-.07.72,3.56a34.79,34.79,0,0,1,3.52,0,5.11,5.11,0,0,1,1.56.82,7.18,7.18,0,0,1-1.46.93,4.62,4.62,0,0,1-1.49,0c-3.68,0-6.47,2.32-6.59,5.47-.1,2.92,3.17,6.26,6.43,6.58,3,.28,5.05-1.12,6.91-3.22,3.24-3.66,7.33-4.46,10.91-2.17A10.81,10.81,0,0,1,648,82.39Z"/><path d="M609.74,70.78a12.19,12.19,0,0,0,.73,2.43c.34.57.92,1.27,1.48,1.36s1.14-.58,1.57-1c1.26-1.37,2.5-2.76,3.65-4.22.71-.91,1.26-2,2-3l2.37,5.87c-.59-.13-1.54-.08-2.09-.53-1.39-1.13-2.56-.53-3.07.6a28.27,28.27,0,0,0-1.51,5.55,11.59,11.59,0,0,0,0,2.43l-1,.48a3.94,3.94,0,0,1-.4-1.15c0-1.93-.77-3-2.83-3.6C608.75,75.4,608.39,73.06,609.74,70.78Z"/><path d="M623.39,62.26l.5,1.94c2.43.7,4.42,1.33,6.45,1.81.55.13,1.2-.26,1.82-.33,1.42-.17,2.84-.29,4.27-.42.05.36.11.73.17,1.09l-4.24,1.1a5.49,5.49,0,0,0-.12.83c0,.74,0,1.49,0,2.23a8.55,8.55,0,0,1-1.62-1.42c-2-3-4.39-3.38-7.27-1.13a7.55,7.55,0,0,1-1.46.68c.16-2.4.31-4.48.45-6.55Z"/><path d="M634,74l-1.89,3.27,6.5,1.18c-1.09,1.93-2.75,1.87-4.44,1.3-4.24-1.42-4.21-1.45-6.74,2.12-.25.35-.88.44-1.33.64-.07-.44-.37-1.08-.18-1.3,2.36-2.7,4.78-5.33,7.18-8Z"/><path d="M642.47,93.52c-3.43-1-5.5-4.85-4.88-8.69Z"/><path d="M87,77.25C80.31,85.9,72.65,92.13,61.55,92S43,85.68,36.61,77.3c-1.06,1.36-1.93,2.56-2.88,3.7-.71.86-1.06,2.73-2.66,1.57-.36-.27.1-2.25.67-3.11A35.19,35.19,0,0,1,49.58,65.7,36.57,36.57,0,0,1,91.77,79.3c.33.48.83.94.92,1.46a7.41,7.41,0,0,1-.24,2c-.64-.21-1.49-.24-1.86-.68C89.36,80.65,88.31,79.07,87,77.25ZM38.64,75.59C44.9,84,52.41,90.19,63.44,89.41,73,88.73,79.62,83,84.87,75.49,73.05,63.28,49.86,63.33,38.64,75.59Z"/><path class="cls-1" d="M38.64,75.59c11.22-12.26,34.41-12.31,46.23-.1C79.62,83,73,88.73,63.44,89.41,52.41,90.19,44.9,84,38.64,75.59Zm14,2.36a9.11,9.11,0,1,0,9.1-9.21A9.08,9.08,0,0,0,52.68,78Z"/><path d="M52.68,78A9.11,9.11,0,1,1,61.89,87,9.14,9.14,0,0,1,52.68,78Zm2.63-.06a6.53,6.53,0,0,0,6.39,6.6,6.58,6.58,0,1,0,0-13.15A6.49,6.49,0,0,0,55.31,77.89Z"/><path class="cls-1" d="M55.31,77.89a6.49,6.49,0,0,1,6.42-6.55,6.58,6.58,0,1,1,0,13.15A6.53,6.53,0,0,1,55.31,77.89Z"/><text class="cls-2" transform="translate(0 45.99)">C<tspan class="cls-3" x="37.95" y="0">e</tspan><tspan class="cls-4" x="68.24" y="0">n</tspan><tspan class="cls-5" x="101.25" y="0">t</tspan><tspan class="cls-6" x="121.16" y="0">e</tspan><tspan x="151.45" y="0">r f</tspan><tspan class="cls-3" x="209.21" y="0">o</tspan><tspan x="242.42" y="0">r B</tspan><tspan class="cls-7" x="314.84" y="0">e</tspan><tspan class="cls-8" x="344.98" y="0">t</tspan><tspan x="364.59" y="0">t</tspan><tspan class="cls-3" x="384.5" y="0">e</tspan><tspan x="414.79" y="0">r L</tspan><tspan class="cls-7" x="482.12" y="0">e</tspan><tspan x="512.26" y="0">arning</tspan></text><text class="cls-9" transform="translate(107.9 91.7)">Better Vision. B<tspan class="cls-10" x="250.24" y="0">r</tspan><tspan x="266.52" y="0">ighter </tspan><tspan class="cls-11" x="374.87" y="0">F</tspan><tspan x="391.11" y="0">utu</tspan><tspan class="cls-11" x="446.73" y="0">r</tspan><tspan x="461.6" y="0">e.</tspan></text></g></g></svg>