<?xml version="1.0" encoding="UTF-8"?>
<svg xmlns="http://www.w3.org/2000/svg" xmlns:xlink="http://www.w3.org/1999/xlink" width="16" height="16" viewBox="0 0 64 64" version="1.1">
<g id="surface12855976">
<path style=" stroke:none;fill-rule:nonzero;fill:rgb(21.960784%,71.372549%,100%);fill-opacity:1;" d="M 36 8 L 36 12 L 49.171875 12 L 24.09375 37.09375 L 26.90625 39.90625 L 52 14.828125 L 52 28 L 56 28 L 56 8 Z M 16 16 C 11.578125 16 8 19.578125 8 24 L 8 48 C 8 52.421875 11.578125 56 16 56 L 40 56 C 44.421875 56 48 52.421875 48 48 L 48 28 L 44 32 L 44 48 C 44 50.203125 42.203125 52 40 52 L 16 52 C 13.796875 52 12 50.203125 12 48 L 12 24 C 12 21.796875 13.796875 20 16 20 L 32 20 L 36 16 Z M 16 16 "/>
</g>
</svg>
