<svg xmlns="http://www.w3.org/2000/svg" viewBox="0 0 688.05 280.98"><defs><style>.cls-1{fill:#e0629a;}.cls-13,.cls-2{fill:#ffd348;}.cls-3{fill:none;}.cls-4{fill:#8cca85;}.cls-5{font-size:50.4px;font-family:LeagueSpartan-Bold, League Spartan;font-weight:700;}.cls-12,.cls-5{fill:#fff;}.cls-6{letter-spacing:0em;}.cls-7{letter-spacing:-0.01em;}.cls-8{letter-spacing:0em;}.cls-9{letter-spacing:0em;}.cls-10{letter-spacing:0em;}.cls-11{letter-spacing:-0.01em;}.cls-12{font-size:36px;font-family:ComingSoon-Regular, Coming Soon;}.cls-13{letter-spacing:0.02em;}.cls-14{letter-spacing:-0.02em;}</style></defs><title>Asset 9</title><g id="Layer_2" data-name="Layer 2"><g id="Layer_2-2" data-name="Layer 2"><path class="cls-1" d="M585.78,137.22c-1.41-.67-2.87-1.26-4.23-2-8.46-4.86-14.94-4-21.74,2.76-3.68,3.65-7.63,7-11.86,10.93,5.83,5.37,14,9.19,18.81,16.41l-1.54,2a62.51,62.51,0,0,1-5.58-3.52c-8.21-6.46-15.42-14.45-26.69-15.93a9.24,9.24,0,0,1-5.53-2.87c-4.81-6-10.63-4.72-17-3.59-15.84,2.8-28-4.4-30.37-17.42-3.3-18.1,4.5-31,20.71-34.88a15.63,15.63,0,0,0,7-4.45c5.66-5.84,11.72-9.36,20.26-6.53a9.92,9.92,0,0,0,6.88-.91c10.24-5.32,16.11-4.54,24.53,3.25a10.44,10.44,0,0,0,6.09,2.16c12.06.65,20.88,6,26,17.07.35.77.49,1.86,1.09,2.24,11.41,7.28,8.62,19.19,9.14,29.58.65,13.08-7.22,19.36-20.15,17.19-4.32-.73-8.48-2.39-12.71-3.62l.59-2.93a48.17,48.17,0,0,1,6.28.87c6.14,1.65,12.59,4.22,18-.93s4.85-12.25,3.27-19c-2.27-9.69-8.32-12.83-18.57-10.94a99.67,99.67,0,0,1-18.61,1.27c-2,0-3.9-2.13-5.85-3.28l.78-2,7.88,1.59,7.05-11.32L572,99.69c-1.19,3-2.38,6-4.09,10.35l15.14-3.26c-3.36-5,.37-5.08,3.7-5.22-3.68-9.89-11.37-14.56-23.51-14.31-3,.06-5.88.71-8.82.78a23,23,0,0,1-4.83-.93q1.93-1.66,3.88-3.32c.44-.38.91-.73,1.37-1.1-5.81-5.92-9.33-6.11-18.92-.92l1,4.72c-6.3-1.52-13.13-5.39-18.27-3.81-5.46,1.69-9.3,8.55-14,13.3-4.31-3-9.62-2.1-15.23,3.56-6.73,6.78-7.89,23.18-2.11,30.66,6.75,8.76,16.15,7.77,25.5,6.68a36,36,0,0,0,5.26-1.49c-3-9.56.84-16.68,7.64-22.94,1.33-1.22,1.82-3.53,2.3-5.44a50.78,50.78,0,0,0,.82-6.32l2.12-.18c.55,2.73,1.11,5.46,1.84,9a84,84,0,0,1,8.93.1c1.38.14,2.64,1.35,4,2.08a18.42,18.42,0,0,1-3.72,2.35c-1.13.4-2.51.09-3.77.09-9.34,0-16.43,5.92-16.72,13.9-.27,7.42,8,15.89,16.32,16.69,7.48.73,12.82-2.82,17.55-8.16,8.22-9.28,18.58-11.31,27.67-5.5,1.69,1.08,2.88,2.93,4.3,4.43Z"/><path class="cls-1" d="M490.09,106.05c.77,2.73,1,4.66,1.85,6.17s2.33,3.22,3.76,3.46c1.16.2,2.89-1.47,4-2.66,3.2-3.46,6.33-7,9.25-10.7,1.82-2.31,3.21-5,5-7.72l6,14.91c-1.5-.34-3.93-.21-5.31-1.34-3.53-2.88-6.51-1.36-7.79,1.52-2,4.4-2.81,9.32-3.84,14.09-.42,2-.07,4.09-.07,6.15l-2.49,1.24a10.26,10.26,0,0,1-1-2.92c-.1-4.9-2-7.64-7.19-9.14C487.57,117.77,486.67,111.85,490.09,106.05Z"/><path class="cls-1" d="M524.73,84.44c.56,2.15,1.12,4.31,1.28,4.9,6.17,1.78,11.22,3.39,16.36,4.61,1.4.33,3.06-.66,4.63-.84,3.6-.43,7.21-.73,10.82-1.08.15.93.29,1.86.44,2.78L547.49,97.6a17.13,17.13,0,0,0-.29,2.1c0,1.89,0,3.78.06,5.67-1.39-1.18-3.14-2.13-4.12-3.6-5-7.59-11.15-8.59-18.45-2.88a20.37,20.37,0,0,1-3.72,1.74c.42-6.11.78-11.37,1.14-16.64Z"/><path class="cls-1" d="M551.75,114.1l-4.82,8.3,16.51,3c-2.77,4.91-7,4.74-11.27,3.3-10.75-3.61-10.67-3.67-17.12,5.39-.63.89-2.22,1.1-3.36,1.63-.18-1.13-.93-2.76-.45-3.31,6-6.85,12.12-13.54,18.22-20.26Z"/><path class="cls-1" d="M573.17,163.78c-8.72-2.44-13.95-12.32-12.39-22.06C565.33,149.81,569.25,156.79,573.17,163.78Z"/><path class="cls-2" d="M327.78,67.09C304.65,51.67,305.86,25.7,319,11.51A36.15,36.15,0,0,1,370.37,10c12.71,12,18.18,39.66-7,57,3,1.14,5.84,2,8.54,3.3,25.79,11.95,40.12,31.84,41.57,60.36.45,8.82.11,17.68.13,26.52,0,2.32-.07,4.82-3.18,4.77s-3-2.58-3.12-4.87c-.39-12,.33-24.17-1.46-36-4.63-30.47-35.53-53.06-66.27-49.49-33.19,3.86-55.94,29.28-56,62.61,0,7.6,0,15.2,0,22.8,0,2.37-.22,4.78-3.15,4.89-3.23.11-3.58-2.39-3.52-4.94.23-10.76-.54-21.65.85-32.26,3.76-28.63,20.35-47.22,47.41-56.86C325.82,67.64,326.47,67.48,327.78,67.09Zm46.75-31.43A28.92,28.92,0,0,0,345.74,6.47c-16.31-.1-29.62,12.81-29.71,28.84a29.29,29.29,0,0,0,29.16,29.41A28.93,28.93,0,0,0,374.53,35.66Z"/><path class="cls-3" d="M374.53,35.66a28.93,28.93,0,0,1-29.34,29.06A29.29,29.29,0,0,1,316,35.31c.09-16,13.4-28.94,29.71-28.84A28.92,28.92,0,0,1,374.53,35.66Z"/><path class="cls-4" d="M199,111c-13.23,17.14-28.41,29.48-50.41,29.29-21.74-.19-36.73-12.58-49.42-29.2-2.08,2.7-3.83,5.07-5.7,7.34-1.41,1.7-2.1,5.41-5.27,3.11-.72-.53.19-4.46,1.33-6.17a69.68,69.68,0,0,1,35.35-27.26,72.51,72.51,0,0,1,83.61,26.95c.65,1,1.64,1.86,1.81,2.89a13.89,13.89,0,0,1-.49,4c-1.25-.43-2.95-.48-3.68-1.35C203.67,117.75,201.59,114.6,199,111Zm-95.8-3.29c12.4,16.68,27.28,28.93,49.14,27.38,18.93-1.35,32.07-12.65,42.47-27.58C171.36,83.32,125.4,83.41,103.17,107.72Z"/><path class="cls-3" d="M103.17,107.72c22.23-24.31,68.19-24.4,91.61-.2-10.4,14.93-23.54,26.23-42.47,27.58C130.45,136.65,115.57,124.4,103.17,107.72ZM131,112.4a18,18,0,1,0,18-18.26A18,18,0,0,0,131,112.4Z"/><path class="cls-4" d="M131,112.4a18,18,0,1,1,18.25,18A18.11,18.11,0,0,1,131,112.4Zm5.2-.12a12.93,12.93,0,0,0,12.66,13.07,13,13,0,1,0,.06-26A12.85,12.85,0,0,0,136.19,112.28Z"/><path class="cls-3" d="M136.19,112.28a12.85,12.85,0,0,1,12.72-13,13,13,0,1,1-.06,26.05A12.93,12.93,0,0,1,136.19,112.28Z"/><text class="cls-5" transform="translate(0 217.76)">C<tspan class="cls-6" x="37.95" y="0">e</tspan><tspan class="cls-7" x="68.24" y="0">n</tspan><tspan class="cls-8" x="101.25" y="0">t</tspan><tspan class="cls-9" x="121.16" y="0">e</tspan><tspan x="151.45" y="0">r f</tspan><tspan class="cls-6" x="209.21" y="0">o</tspan><tspan x="242.42" y="0">r B</tspan><tspan class="cls-10" x="314.84" y="0">e</tspan><tspan class="cls-11" x="344.98" y="0">t</tspan><tspan x="364.59" y="0">t</tspan><tspan class="cls-6" x="384.5" y="0">e</tspan><tspan x="414.79" y="0">r L</tspan><tspan class="cls-10" x="482.12" y="0">e</tspan><tspan x="512.26" y="0">arning</tspan></text><text class="cls-12" transform="translate(107.9 263.47)">Better Vision. <tspan class="cls-2" x="228.59" y="0">B</tspan><tspan class="cls-13" x="250.24" y="0">r</tspan><tspan class="cls-2" x="266.52" y="0">ighter </tspan><tspan class="cls-14" x="374.87" y="0">F</tspan><tspan x="391.11" y="0">utu</tspan><tspan class="cls-14" x="446.73" y="0">r</tspan><tspan x="461.6" y="0">e.</tspan></text></g></g></svg>